<?xml version="1.0" encoding="UTF-8"?>
<svg xmlns="http://www.w3.org/2000/svg" viewBox="0 0 960 640" font-family="Helvetica, Arial, sans-serif">
  <defs>
    <marker id="arrow" markerWidth="10" markerHeight="10" refX="8" refY="3" orient="auto" markerUnits="strokeWidth">
      <path d="M0,0 L8,3 L0,6 Z" fill="#37474f"/>
    </marker>
    <marker id="arrowDash" markerWidth="10" markerHeight="10" refX="8" refY="3" orient="auto" markerUnits="strokeWidth">
      <path d="M0,0 L8,3 L0,6 Z" fill="#90a4ae"/>
    </marker>
  </defs>

  <rect x="0" y="0" width="960" height="640" fill="#fafafa"/>
  <text x="480" y="32" text-anchor="middle" font-size="22" font-weight="bold" fill="#263238">aws-eks-singlecluster — EKS spoke-in-a-box with Aviatrix DCF egress filtering</text>

  <!-- Internet -->
  <ellipse cx="120" cy="90" rx="70" ry="28" fill="#eceff1" stroke="#607d8b" stroke-width="2"/>
  <text x="120" y="96" text-anchor="middle" font-size="15" fill="#263238">Internet</text>

  <!-- IGW -->
  <rect x="60" y="160" width="120" height="44" rx="6" fill="#fff3e0" stroke="#fb8c00" stroke-width="2"/>
  <text x="120" y="187" text-anchor="middle" font-size="14" fill="#263238">Internet Gateway</text>

  <!-- Internet <-> IGW -->
  <line x1="120" y1="118" x2="120" y2="160" stroke="#37474f" stroke-width="2" marker-end="url(#arrow)"/>
  <line x1="130" y1="160" x2="130" y2="118" stroke="#37474f" stroke-width="2" marker-end="url(#arrow)"/>

  <!-- VPC box -->
  <rect x="40" y="230" width="660" height="380" rx="10" fill="#e3f2fd" stroke="#1976d2" stroke-width="2"/>
  <text x="60" y="256" font-size="16" font-weight="bold" fill="#0d47a1">Spoke VPC  10.30.0.0/23  (us-east-2, 2 AZs)</text>

  <!-- avx_public subnet w/ spoke GW -->
  <rect x="60" y="276" width="280" height="92" rx="6" fill="#fff" stroke="#1976d2" stroke-width="1.5"/>
  <text x="72" y="296" font-size="12" fill="#1565c0">avx_public  /28</text>
  <rect x="72" y="306" width="256" height="52" rx="5" fill="#e8f5e9" stroke="#2e7d32" stroke-width="2"/>
  <text x="200" y="328" text-anchor="middle" font-size="13" font-weight="bold" fill="#1b5e20">Aviatrix Spoke Gateway</text>
  <text x="200" y="346" text-anchor="middle" font-size="11" fill="#33691e">DCF egress filtering + single_ip_snat</text>

  <!-- lb_public subnet w/ ALB -->
  <rect x="360" y="276" width="320" height="92" rx="6" fill="#fff" stroke="#1976d2" stroke-width="1.5"/>
  <text x="372" y="296" font-size="12" fill="#1565c0">lb_public  /26</text>
  <rect x="372" y="306" width="296" height="52" rx="5" fill="#fff8e1" stroke="#f9a825" stroke-width="2"/>
  <text x="520" y="328" text-anchor="middle" font-size="13" font-weight="bold" fill="#e65100">ALB (Gatus Ingress)</text>
  <text x="520" y="346" text-anchor="middle" font-size="11" fill="#ef6c00">internet-facing, target-type: ip</text>

  <!-- infra_private subnet w/ EKS nodes -->
  <rect x="60" y="388" width="280" height="92" rx="6" fill="#fff" stroke="#1976d2" stroke-width="1.5"/>
  <text x="72" y="408" font-size="12" fill="#1565c0">infra_private  /26</text>
  <rect x="72" y="418" width="256" height="52" rx="5" fill="#ede7f6" stroke="#5e35b1" stroke-width="2"/>
  <text x="200" y="440" text-anchor="middle" font-size="13" font-weight="bold" fill="#4527a0">EKS Nodes</text>
  <text x="200" y="458" text-anchor="middle" font-size="11" fill="#512da8">2x t3.large SPOT (min 1 / max 3)</text>

  <!-- pod_private subnet w/ pods -->
  <rect x="360" y="388" width="320" height="92" rx="6" fill="#fff" stroke="#1976d2" stroke-width="1.5"/>
  <text x="372" y="408" font-size="12" fill="#1565c0">pod_private  /17  (secondary CIDR)</text>
  <rect x="372" y="418" width="296" height="52" rx="5" fill="#e1f5fe" stroke="#0288d1" stroke-width="2"/>
  <text x="520" y="440" text-anchor="middle" font-size="13" font-weight="bold" fill="#01579b">Pods  100.64.0.0/16</text>
  <text x="520" y="458" text-anchor="middle" font-size="11" fill="#0277bd">VPC CNI custom networking (ENIConfig)</text>

  <!-- EKS control plane -->
  <rect x="60" y="500" width="620" height="80" rx="6" fill="#fce4ec" stroke="#c2185b" stroke-width="2"/>
  <text x="370" y="528" text-anchor="middle" font-size="14" font-weight="bold" fill="#880e4f">EKS Control Plane (AWS-managed, K8s 1.34)</text>
  <text x="370" y="550" text-anchor="middle" font-size="11" fill="#ad1457">OIDC / IRSA, VPC CNI addon, CoreDNS, AWS Load Balancer Controller</text>
  <text x="370" y="568" text-anchor="middle" font-size="11" fill="#ad1457">Onboarded to Aviatrix Controller via controller role ARN</text>

  <!-- node-to-pod relation -->
  <line x1="328" y1="444" x2="372" y2="444" stroke="#37474f" stroke-width="2" marker-end="url(#arrow)"/>

  <!-- egress path: nodes/pods -> spoke GW -> IGW -->
  <line x1="200" y1="418" x2="200" y2="358" stroke="#2e7d32" stroke-width="2" marker-end="url(#arrow)"/>
  <line x1="160" y1="306" x2="125" y2="204" stroke="#2e7d32" stroke-width="2" marker-end="url(#arrow)"/>
  <text x="120" y="262" font-size="10" fill="#2e7d32" transform="rotate(-60 120 262)">filtered egress</text>

  <!-- Transit (faded) -->
  <rect x="760" y="330" width="160" height="120" rx="10" fill="#f5f5f5" stroke="#bdbdbd" stroke-width="2" stroke-dasharray="6 4"/>
  <text x="840" y="372" text-anchor="middle" font-size="15" font-weight="bold" fill="#9e9e9e">Transit</text>
  <text x="840" y="394" text-anchor="middle" font-size="10" fill="#9e9e9e">Aviatrix /</text>
  <text x="840" y="408" text-anchor="middle" font-size="10" fill="#9e9e9e">AWS TGW /</text>
  <text x="840" y="422" text-anchor="middle" font-size="10" fill="#9e9e9e">Cloud WAN</text>

  <!-- dashed arrow spoke GW -> transit -->
  <path d="M330 332 C 520 332, 600 390, 758 390" fill="none" stroke="#90a4ae" stroke-width="2.5" stroke-dasharray="8 5" marker-end="url(#arrowDash)"/>
  <text x="560" y="318" text-anchor="middle" font-size="11" fill="#607d8b">attach to transit (post-deploy, set transit id/arn)</text>

  <text x="480" y="624" text-anchor="middle" font-size="11" fill="#78909c">Default: standalone spoke (transit_type = aws_tgw, pod_cidr_mode = non_routable, empty aws_tgw_id). No east-west until a transit target is supplied.</text>
</svg>
